<?xml version="1.0" encoding="UTF-8"?>
<svg id="Layer_1" xmlns="http://www.w3.org/2000/svg" version="1.1" viewBox="0 0 15.77 32">
  <!-- Generator: Adobe Illustrator 30.6.0, SVG Export Plug-In . SVG Version: 2.1.4 Build 109)  -->
  <defs>
    <style>
      .st0 {
        fill: #8a8780;
      }
    </style>
  </defs>
  <path class="st0" d="M0,16.24v7.64h7.64v-7.64H0ZM5.71,20.48c0,1.57-.83,2.2-1.93,2.2-1.04,0-1.83-.59-1.83-2.18v-3.01h.67v3.03c0,1.14.51,1.62,1.19,1.62.75,0,1.24-.5,1.24-1.62v-3.03h.67v2.98Z"/>
  <path class="st0" d="M8.12,23.88h7.64v-7.64h-7.64v7.64ZM13.86,22.61h-.67l-1.62-2.59c-.36-.57-.7-1.15-.95-1.7h-.02c.04.65.05,1.26.05,2.11v2.18h-.62v-5.1h.73l1.63,2.58c.37.6.67,1.13.91,1.66h.02c-.06-.69-.07-1.31-.07-2.1v-2.14h.62v5.1Z"/>
  <path class="st0" d="M11.81,26.12c-.29,0-.51.03-.62.05v1.98c.14.04.33.05.54.05.8,0,1.28-.39,1.28-1.08s-.48-1.01-1.2-1.01"/>
  <path class="st0" d="M8.12,31.99h7.64v-7.64h-7.64v7.64ZM13.28,28.15c-.35.37-.92.56-1.56.56-.2,0-.38,0-.53-.04v2.04h-.66v-5.03c.32-.06.73-.11,1.26-.11.65,0,1.13.15,1.43.42.28.24.45.61.45,1.07s-.14.82-.4,1.09"/>
  <path class="st0" d="M3.34,26.08c-.34,0-.6.03-.77.07v4.03c.17.03.41.03.67.03,1.41,0,2.17-.79,2.17-2.17,0-1.22-.67-1.97-2.07-1.97"/>
  <path class="st0" d="M0,32h7.64v-7.64H0v7.64ZM5.36,30.01c-.49.48-1.27.73-2.26.73-.48,0-.86-.01-1.2-.06v-5.02c.41-.06.89-.11,1.41-.11.95,0,1.62.21,2.07.63.46.42.73,1.02.73,1.84s-.27,1.51-.73,1.98"/>
  <path class="st0" d="M9.59,5.67v.03c-.2.2-.42.41-.6.62l.06.06c0-.05.04-.09.04-.15.05-.07.13-.03.19-.01.1-.02.19.02.3.02.08.04.08.13.15.17l-.02.08c.02.16.1-.04.18,0,.03.01.08,0,.1.04.01.07.09.05.1.12,0,.03-.04.04-.06.06.02.06-.07.1-.04.17.12.02.13-.12.18-.18-.03-.11-.05-.22-.12-.32-.07-.02-.11-.1-.18-.11-.13-.05.02-.14,0-.22-.07-.13-.18-.25-.28-.37"/>
  <path class="st0" d="M10.37,7.91c-.09.28-.19.56-.37.8-.07.09-.14.21-.23.26l.19.17v-.04s.02-.05.05-.05c.09,0,.09.1.15.15-.01.08.06.14.04.22.53-.56.79-1.24.84-2l.03-.03c-.19.02-.39,0-.58,0h-.05c.01.11-.02.24-.03.36l.07.08v.1s-.11,0-.11,0Z"/>
  <path class="st0" d="M9.64,9.9l.03-.04c.13-.1.26-.19.37-.31h.01-.09c-.06-.02-.07-.08-.07-.14l-.26-.27v-.04c-.03.05-.07.08-.11.12,0,.03-.01.08.03.11.08.03.19.08.21.18-.03.09-.21.18-.1.28.04.05-.05.07-.04.11"/>
  <path class="st0" d="M8.13,8.8c.05.01.02.07.06.09.09-.03.15.07.22.01,0-.1.11-.09.17-.12.09-.06.2-.13.19-.26v-.02c-.08,0-.11.05-.16.09-.06.03-.09-.06-.14-.04l.02.02v.06c-.07.07-.11-.03-.17-.03v.03l-.03.03c-.04-.07-.13-.04-.17-.1l-.07.02s-.08,0-.07.05c-.05.02-.06.08-.1.11-.06-.01-.09.06-.16.06l.02.04s.08.02.12.01c.06-.1.17-.02.26-.05"/>
  <path class="st0" d="M7.75,10.66l.02-.03-.06.02c-.82-.06-1.54-.35-2.14-.92v.03s-.44.43-.44.43c.66.57,1.39.93,2.24,1.05.13.02.29.01.42.05l-.03-.05v-.57Z"/>
  <path class="st0" d="M8.13,6.49s.08-.02.12-.03c.06,0,.1.06.14.09.04.02.07,0,.11-.02.02-.17.24-.15.31-.31l-.04.02s-.06-.01-.06-.05c.04-.03.08-.09.13-.1-.19-.12-.38-.22-.6-.27-.08-.02-.17-.02-.25-.05.04.12,0,.3.03.43l.15.05c.04-.07.14-.09.18-.16l.08.03c0,.06,0,.11-.03.17-.06.11-.19.13-.27.21"/>
  <path class="st0" d="M9.48,8.62c0,.07-.08.1-.06.17-.03.03-.07.04-.12.04-.17-.06-.34-.1-.53-.12l-.03.04c.08.04.17.04.25.08.07.02.12.11.21.08.08-.04.2.03.25-.05,0-.08.06-.13.09-.2h.03s.04.1.06.15c.06-.06.11-.13.16-.2.14-.2.26-.42.31-.65-.06,0-.11.01-.17.03-.06,0-.13.03-.19-.01l-.03.03s-.04.07-.09.06c-.04-.02-.04-.06-.05-.09v.07c-.05.05-.07.09-.1.14-.04.05-.12.03-.16.07,0,.1-.12.08-.18.11l.02.03.09-.02c.09.02.07-.09.12-.13.04,0,.09-.04.13-.01.05.06.06.14.05.21-.05.05-.02.13-.06.19"/>
  <path class="st0" d="M8.51,8.4c.05-.05.16-.05.16-.13-.07-.01-.11.03-.16.07v.06Z"/>
  <path class="st0" d="M7.99,10.43c.16-.05.34-.04.5-.07-.03-.01-.07-.02-.09-.05-.1,0-.15-.11-.18-.19-.01-.06.02-.1.05-.15-.04-.09-.17-.02-.25-.05l-.07-.05.03.05c0,.17.02.35,0,.52"/>
  <path class="st0" d="M10.22,9.68c-.06.12-.19.19-.29.28-.14.14-.36.17-.43.36-.07.07-.1.17-.2.21-.04.1-.15.09-.21.17-.18.16-.29-.1-.45-.13l-.32.06c-.11,0-.22.04-.33,0,.01.21.01.45,0,.66l.04-.03c1.01-.04,1.89-.43,2.64-1.11l-.44-.42v-.05Z"/>
  <path class="st0" d="M9.85,7.35l.07.06c.06.04.02.14.09.18.08.04.11.14.15.21l.02-.06c.03-.12.02-.25.06-.36-.13,0-.27.02-.38-.03"/>
  <path class="st0" d="M8.65,5.07c-.21-.08-.44-.11-.68-.14l.02.05v.57s.05-.01.05-.01c.35.05.67.16.94.38v.04c.11-.13.25-.25.36-.37l.11-.06-.05-.02c-.23-.19-.48-.34-.76-.44"/>
  <path class="st0" d="M7.66,8.75c.01-.06,0-.13.02-.18.02-.05.08-.04.12-.04l.02-.05c-.06-.01-.03-.08-.05-.12l.03-.04s.02-.07-.01-.11l.03-.03c-.13.05-.26-.02-.38-.07-.05-.03-.13-.06-.15-.13-.09.15-.26.28-.39.42.23.18.48.3.76.35"/>
  <path class="st0" d="M4.74,7.42l.05.39c.02.15.08.29.08.44.02-.03,0-.09.07-.1-.02-.05.04-.09,0-.13.02-.1.03-.2.12-.28.11,0,.12-.15.22-.15.05,0,.09.07.11.1-.07-.08-.06-.22-.05-.31l-.05.02c-.19,0-.4.01-.58-.01l.03.04Z"/>
  <path class="st0" d="M7.16,7.84l-.07-.04c-.01.05-.05.1-.09.14h0c.05-.03.09-.1.15-.1"/>
  <path class="st0" d="M5.43,9.57c-.07-.05-.13-.13-.2-.2-.07-.02-.14-.07-.18-.13l-.03-.08-.03.03c-.07.04-.1-.04-.15-.07-.07-.04-.03-.16-.12-.14-.03,0-.04-.04-.06-.06-.08,0-.1-.08-.15-.13l-.03.06c-.08.02-.11-.08-.17-.13l-.05.02c-.05-.04-.08-.11-.09-.18-.07-.08-.04-.2-.03-.3.01-.03.05-.04.04-.07.02-.04.07-.05.11-.05l.04.04s.09,0,.06-.06c.04-.03.09-.04.14-.05.03.04.05.09.09.13l-.03-.05c-.05-.21-.09-.42-.1-.64v-.03s0,0,0,0c0-.05,0-.09,0-.12l-.06.02h-.58c.03.67.21,1.28.51,1.84.15.28.37.53.56.79l.42-.43.05-.02Z"/>
  <path class="st0" d="M7.7,9.84c-.51-.03-.96-.21-1.36-.51.01.05.08.08.06.15-.04.06-.11.06-.17.06-.12-.02-.21.07-.32.08-.1.03-.14-.09-.23-.08.58.51,1.25.83,2.03.87l.06.04-.03-.07v-.56l-.05.02Z"/>
  <path class="st0" d="M6.1,4.66c-.13.09-.25.21-.38.29.16.1.28.26.42.39v.04c.37-.34.81-.54,1.28-.64.11-.01.22-.05.33-.03,0-.2-.03-.41,0-.61-.61.04-1.16.22-1.64.55"/>
  <path class="st0" d="M6.69,7.74h-.04s-.03,0-.03,0c0-.12-.13-.05-.19-.11.06.11.09.23.15.34.04.1.12.17.16.27.04-.08.12-.14.18-.21,0-.03,0-.06-.02-.08-.02-.04,0-.11-.04-.15-.05.02.02.07,0,.11l-.05-.03s-.09-.05-.1-.09c.04-.03-.01-.04-.02-.06"/>
  <path class="st0" d="M5.6,6.86c-.02.1-.01.22-.05.31.07-.03.18-.02.26-.01-.05-.03,0-.09-.04-.12,0-.05-.01-.12.04-.15,0-.09.09-.13.09-.21.02-.09.12-.03.17-.08.03-.02,0-.05,0-.07.04-.06.11-.05.16-.09.04-.05.08-.11.14-.15.13,0,.13-.17.25-.18-.16-.12-.32-.29-.46-.43-.29.35-.49.73-.56,1.16"/>
  <path class="st0" d="M5.56,5.13l-.23.29c-.37.51-.55,1.1-.6,1.74h.58s.05.01.05.01l-.03-.06c.05-.6.26-1.13.67-1.58-.16-.14-.31-.29-.44-.44v.04Z"/>
  <path class="st0" d="M5.68,7.71s-.05-.05-.04-.09c.04-.08,0-.2.11-.24-.07.01-.14.03-.2-.02l.03.05c0,.14.06.27.03.41.02-.04.03-.09.08-.12"/>
  <path class="st0" d="M5.9,7.39l-.02.11c-.03.06-.11.02-.14.06-.03.04,0,.09.03.12-.06.13.13.18.13.3.06.08,0,.19.08.25.02.14-.02.32.1.43l.02.13c.02.09-.11.07-.09.15l.03.03h0c.16-.19.35-.39.54-.55l-.08-.08c-.15-.22-.27-.46-.32-.72l-.06-.03c0,.07-.03.12-.03.19l-.02.03s-.07-.04-.11-.06c0-.02-.03-.06,0-.08h.05s.02-.07.02-.07c0-.05-.04-.1,0-.14.04,0,.07.04.09.07.04.01.07-.02.11-.04,0-.04.05-.08,0-.1.03-.08,0-.17,0-.25-.02-.07-.1-.06-.16-.05-.17.05.03.18-.01.29-.02.06-.09,0-.13.03"/>
  <path class="st0" d="M7.34,9.06s.1-.08.16-.1c-.19.04-.35-.1-.51-.17-.09-.07-.21-.12-.26-.22-.12.15-.27.31-.42.43.07,0,.1.08.16.11.32.26.71.39,1.07.48l-.1-.05c-.08-.09-.18-.19-.19-.31.08-.03.07-.11.09-.17"/>
  <path class="st0" d="M10.28,4.94s.06.06.09.09c.15.08.19.25.33.34.08.16.25.28.26.46.18.4.31.83.32,1.3l-.02.03.05-.02h.61c-.04-.07-.02-.16-.03-.23-.08-.93-.48-1.74-1.11-2.44-.12.16-.27.3-.42.45h-.07Z"/>
  <path class="st0" d="M4.53,7.17v-.08c.03-.67.24-1.27.62-1.8.09-.11.16-.24.28-.32-.14-.13-.28-.28-.42-.42v-.06c-.61.67-.98,1.43-1.09,2.29-.02.13,0,.26-.03.38.21-.02.44-.02.65,0"/>
  <path class="st0" d="M5.59,4.81v-.03c.62-.56,1.34-.87,2.16-.9l-.02-.05v-.5s.01-.06.01-.06c-.84.03-1.6.32-2.26.8-.13.09-.24.22-.37.3h.02c.17.12.32.3.46.45"/>
  <path class="st0" d="M7.75,5.78c-.34.04-.65.16-.9.42h.05c.05.05.13.04.17.11.02.04-.04.03-.03.07l.03.03s.03-.02.05-.04c.05-.05.06.05.11.05.04-.02.09-.03.11.01.03-.03.1,0,.12-.06.07-.07.03-.18.13-.22.03.02,0,.05.01.08.06.03.14-.05.19.01-.05-.14-.04-.31-.03-.46"/>
  <path class="st0" d="M0,15.76h15.76V0H0v15.76ZM13.53,8.21c-.22.31-.49.61-.69.92.02-.25.05-.56-.05-.8-.17-.51-.32-1.04-.37-1.6v-.22c.13.58.7.98.67,1.62.01.16-.04.29-.06.43h.01s.03-.02.03-.02c.08-.32.13-.65.26-.95.19-.43.42-.86.32-1.37.28.61.2,1.42-.11,1.99M13.18,4.94c.37.5.45,1.31.18,1.88-.1.25-.17.51-.21.78-.02-.05-.02-.11-.04-.16-.15-.57-.68-.97-.9-1.5-.07-.17-.13-.35-.16-.54.24.43.82.66.97,1.14.07.12.06.27.1.4h.02c-.07-.51-.05-1.03.02-1.51,0-.26-.03-.52-.18-.72.09.05.14.16.2.24M12.92,4.84c.1.44-.04.87.05,1.32h0c-.24-.47-.75-.69-1.1-1.07-.2-.22-.29-.5-.34-.79.2.49.74.59,1.05,1,.11.09.14.22.21.33h.01c-.18-.39-.24-.82-.36-1.23-.06-.18-.19-.35-.35-.46.41.08.76.51.85.9M11.83,3.83c.31.28.45.63.54,1l.05.12c-.45-.32-.85-.75-1.14-1.21l-.35-.35c.31.13.64.21.9.44M5.98,3.49c.58-.29,1.22-.44,1.91-.45,1.58,0,3.1.93,3.79,2.4.44.84.56,2,.28,2.95-.29,1.12-1.23,2.26-2.33,2.72-1.24.61-3,.46-4.11-.34-1.54-1.05-2.16-2.87-1.7-4.66.28-1.06,1.13-2.14,2.16-2.63M4.77,3.44c-.31.27-.52.61-.75.93-.21.25-.47.42-.7.64.13-.26.13-.57.31-.81.25-.44.72-.6,1.15-.76M3.08,4.39c.15-.19.34-.32.55-.37-.42.29-.39.8-.52,1.22-.04.16-.12.3-.15.46h.01c.07-.17.19-.35.34-.5.3-.27.73-.44.88-.85,0,.56-.47,1-.92,1.32-.19.16-.36.35-.46.55-.01-.14.02-.28.01-.43-.05-.49-.08-1.05.26-1.41M2.23,6.06c-.01-.5.19-.9.48-1.27h.03c-.32.47-.05,1.09-.07,1.64l-.04.57h.02s.02-.12.04-.18c.08-.46.47-.78.82-1.09.07-.08.14-.17.18-.26-.03.23-.1.46-.19.67-.27.53-.77.96-.86,1.56-.04-.58-.44-1.01-.4-1.62M1.99,6.77c.04-.16.06-.32.13-.46-.13.66.31,1.13.46,1.7.06.21.08.44.16.64h.02c-.22-.62.09-1.18.41-1.65.08-.13.12-.27.16-.42.03.27-.04.59-.08.87-.08.36-.19.7-.29,1.05-.06.22-.05.47-.01.7l-.03-.03c-.23-.42-.68-.75-.82-1.21-.11-.37-.18-.79-.11-1.2M1.97,8.05c.05.7.8,1.06,1.14,1.64.08.12.15.25.26.35-.02-.07-.09-.14-.11-.21-.12-.24-.17-.53-.14-.82.03-.35.18-.69.13-1.06.3.66.21,1.48.38,2.19.04.16.13.29.19.44-.63-.43-1.48-.83-1.76-1.61-.12-.27-.13-.6-.1-.91M2.35,9.65c.35.79,1.22.86,1.81,1.34.11.09.22.18.34.23h0c-.13-.13-.29-.27-.38-.42-.34-.48-.22-1.15-.48-1.66.23.28.45.57.59.89.21.52.29,1.1.78,1.49-.53-.17-1.14-.12-1.6-.45-.51-.31-.96-.84-1.05-1.42M3.24,11.12c.56.64,1.47.42,2.22.59.1.01.2.06.31.04-.09-.06-.21-.05-.31-.1-.58-.21-.67-.84-.99-1.26.41.27.75.63,1.12.98.27.24.59.34.93.41-.08.03-.19.02-.28.04-.61.15-1.29.4-1.94.18-.42-.13-.86-.47-1.07-.88M10.84,12.6c-.63.24-1.29-.01-1.78-.38-.2-.13-.38-.31-.63-.29-.09,0-.18,0-.26.03.48.22.92.53,1.33.92-.07.08-.16.15-.24.22-.39-.42-.83-.83-1.31-1.06-.09.01-.18.07-.27.12-.4.25-.79.57-1.08.96l-.25-.21c.4-.41.85-.72,1.34-.95-.48-.15-.79.25-1.16.45-.42.3-1.03.44-1.55.23-.28-.1-.54-.26-.74-.51.4.28,1,.31,1.46.13.62-.27,1.25-.61,2-.44.12,0,.23.12.34.02.55-.14,1.17-.04,1.65.21l.49.2c.45.17,1.04.12,1.43-.16-.2.25-.47.43-.76.53M11.51,11.95c-.71.27-1.42-.06-2.1-.17l-.13-.02h0c.32-.08.64-.17.9-.41.38-.37.72-.74,1.14-1.03-.31.4-.35.97-.86,1.23-.13.08-.29.1-.42.16.19,0,.36-.06.55-.08.69-.11,1.49,0,1.97-.59-.18.41-.63.76-1.04.9M11.9,11.23c-.36.1-.75.13-1.1.25.59-.51.56-1.3.96-1.9.13-.17.23-.35.38-.51-.24.49-.14,1.11-.41,1.58-.11.19-.26.37-.43.51.05,0,.1-.05.15-.08.45-.45,1.04-.58,1.53-.94.2-.16.37-.36.46-.58-.09.75-.83,1.45-1.53,1.67M12.8,9.96c-.28.18-.56.35-.83.56v-.03c.41-.69.21-1.62.46-2.38l.09-.25c-.05.47.15.87.14,1.34-.01.28-.11.54-.26.76h.03c.2-.26.36-.55.59-.8.37-.35.74-.71.79-1.2.12.82-.33,1.53-1.01,2"/>
  <path class="st0" d="M11.29,7.38l-.04-.03.02.06c-.03.7-.27,1.32-.67,1.87-.08.09-.15.21-.25.27.16.13.34.31.47.46l.02-.03c.64-.73,1.01-1.58,1.05-2.57l.02-.05h-.03s-.6.02-.6.02Z"/>
  <path class="st0" d="M7.72,4.95c-.53.04-1,.26-1.4.59.16.11.3.29.45.42l.03-.05c.2-.14.41-.27.64-.33.1-.01.21-.06.32-.04-.02-.2-.02-.42,0-.62l-.04.02Z"/>
  <path class="st0" d="M7.98,3.82l.02-.05.07.03v.1s.05-.01.05-.01c.48.04.93.18,1.33.4h0c.08-.05.19-.1.27-.03.1-.04.12.09.2.1.1.06.21.17.22.28.02.04.08.07.09.11.07-.14.2-.24.32-.37l.07-.03c-.63-.61-1.39-.94-2.23-1.05-.13-.02-.28-.01-.41-.05.03.17.02.39,0,.58M9.87,4.1s.08.03.09.08c-.01.05.04.09.01.13-.11.03-.12-.1-.21-.13v-.06s.06.03.11-.01M8.07,3.72s.07-.02.09-.01l.3-.13c.12.01.26.03.33.13v.02c-.08.06-.17.11-.27.07-.14.03-.33.11-.44-.04v-.04Z"/>
  <path class="st0" d="M7.98,4.72c.08-.03.16,0,.24,0,.41.07.8.2,1.13.45-.04-.04-.09-.09-.1-.15h.03c0-.07-.07-.11-.08-.17l.05-.02c.07.07.13.14.18.22.05-.02.08.01.12.04.06.04.02.11.07.16,0,.12.16.19.15.32l.05.02.13.16.02.09c.06.03.09-.05.15-.04.08.05-.01.1,0,.15.03,0,.07-.02.1,0,.01.05-.04.08-.06.1,0,.05.04.04.07.05.04,0,.06.04.05.08.11.11-.03.23.02.34.03.08,0,.15-.05.21,0,.09-.08.15-.12.23l-.11.02c-.06.06.05.13,0,.16h.24s-.03-.02-.03-.02c-.03-.09-.03-.22.03-.3.04-.08.04-.17.11-.23.01,0,.04-.03.05,0,0,.07,0,.15-.04.22.07.1.06.22.07.34.21-.01.41-.02.62-.01l-.02-.04c-.03-.39-.11-.76-.27-1.09-.04,0-.07.04-.13.03l-.03-.04c-.08-.08-.14-.18-.23-.26-.11.01-.16-.11-.25-.13-.09-.04-.03-.17-.15-.14-.06-.03-.12-.07-.13-.14,0-.11-.02-.23-.12-.3-.08-.03-.11.07-.18.06-.04-.02-.02-.08-.04-.11-.01-.03-.05-.05-.04-.1.1-.13-.12-.13-.07-.26-.01-.09-.11-.13-.16-.2-.33-.15-.65-.25-1.02-.29-.09-.01-.17,0-.25-.04l.02.04c0,.2,0,.4-.01.59"/>
  <path class="st0" d="M7.77,6.72c-.06.1-.17.13-.27.16-.03.03-.02.11-.09.1-.02.05-.09.07-.07.14-.03.07-.02.16-.04.24-.12.08-.09-.1-.15-.14l-.02.04-.06-.03h-.07c-.03.05-.07.09-.06.15-.01.04-.08.03-.07.07.07,0,.15-.02.21-.03.05.01.09-.02.14-.03l.03.05h.02s.05-.06.03-.1c0-.04.05-.04.08-.06v.06c.11.04,0,.11-.02.16-.03.04,0,.13-.08.12l-.02-.04h-.01s.02.08.06.09c.06-.05.06-.13.14-.14.04-.05-.02-.12.05-.16.11,0,.23-.05.31.04,0,.04-.02.05,0,.09-.02.05-.04.1-.07.14l-.02.08c-.03.13-.18.07-.26.11.13.1.29.14.46.13.09,0,.05-.12.1-.17.03-.15.16-.05.25-.09.03-.06.06-.12.07-.2-.05-.03-.07-.1-.06-.16-.04-.05-.03-.14-.11-.14v-.05s.05-.06.07-.1c-.05-.03-.04-.1-.03-.14-.08.02-.09-.08-.15-.11-.01-.05-.07-.06-.11-.07-.1.05-.12-.08-.19-.1v-.08s.09,0,.13,0l-.04-.02s-.11-.01-.15,0c.04.04.02.12.05.17"/>
</svg>